<mxfile host="app.diagrams.net" modified="2020-08-02T14:40:43.887Z" agent="5.0 (Windows NT 10.0; Win64; x64) AppleWebKit/537.36 (KHTML, like Gecko) Chrome/84.0.4147.105 Safari/537.36" etag="4hkDi7DpNWWn-d1C088-" version="13.5.8" type="github">
  <diagram id="KSHpFC816zVXYL6jZbH0" name="第 1 页">
    <mxGraphModel dx="1422" dy="800" grid="1" gridSize="10" guides="1" tooltips="1" connect="1" arrows="1" fold="1" page="1" pageScale="1" pageWidth="827" pageHeight="1169" math="0" shadow="0">
      <root>
        <mxCell id="0" />
        <mxCell id="1" parent="0" />
        <mxCell id="8uIgaVaWILyTRUU5tEr0-4" value="" style="edgeStyle=orthogonalEdgeStyle;rounded=0;orthogonalLoop=1;jettySize=auto;html=1;endArrow=none;endFill=0;shadow=1;strokeWidth=2;fontSize=20;" edge="1" parent="1" source="8uIgaVaWILyTRUU5tEr0-1" target="8uIgaVaWILyTRUU5tEr0-2">
          <mxGeometry relative="1" as="geometry" />
        </mxCell>
        <mxCell id="8uIgaVaWILyTRUU5tEr0-1" value="Student" style="rounded=0;whiteSpace=wrap;html=1;shadow=1;strokeWidth=2;fontSize=20;" vertex="1" parent="1">
          <mxGeometry x="150" y="320" width="120" height="60" as="geometry" />
        </mxCell>
        <mxCell id="8uIgaVaWILyTRUU5tEr0-5" value="" style="edgeStyle=orthogonalEdgeStyle;rounded=0;orthogonalLoop=1;jettySize=auto;html=1;endArrow=none;endFill=0;shadow=1;strokeWidth=2;fontSize=20;" edge="1" parent="1" source="8uIgaVaWILyTRUU5tEr0-2" target="8uIgaVaWILyTRUU5tEr0-3">
          <mxGeometry relative="1" as="geometry" />
        </mxCell>
        <mxCell id="8uIgaVaWILyTRUU5tEr0-7" value="" style="edgeStyle=orthogonalEdgeStyle;rounded=0;orthogonalLoop=1;jettySize=auto;html=1;shadow=1;endArrow=none;endFill=0;strokeWidth=2;fontSize=20;" edge="1" parent="1" source="8uIgaVaWILyTRUU5tEr0-2" target="8uIgaVaWILyTRUU5tEr0-6">
          <mxGeometry relative="1" as="geometry" />
        </mxCell>
        <mxCell id="8uIgaVaWILyTRUU5tEr0-2" value="&lt;font style=&quot;font-size: 20px&quot;&gt;Jion&lt;/font&gt;" style="rhombus;whiteSpace=wrap;html=1;shadow=1;strokeWidth=2;fontSize=20;" vertex="1" parent="1">
          <mxGeometry x="334" y="310" width="126" height="80" as="geometry" />
        </mxCell>
        <mxCell id="8uIgaVaWILyTRUU5tEr0-3" value="Course" style="rounded=0;whiteSpace=wrap;html=1;shadow=1;strokeWidth=2;fontSize=20;" vertex="1" parent="1">
          <mxGeometry x="520" y="320" width="120" height="60" as="geometry" />
        </mxCell>
        <mxCell id="8uIgaVaWILyTRUU5tEr0-6" value="Grade" style="ellipse;whiteSpace=wrap;html=1;shadow=1;fontSize=20;strokeWidth=2;" vertex="1" parent="1">
          <mxGeometry x="342.25" y="190" width="109.5" height="50" as="geometry" />
        </mxCell>
      </root>
    </mxGraphModel>
  </diagram>
</mxfile>
